<svg width="138" height="24" viewBox="0 0 138 24" fill="none" xmlns="http://www.w3.org/2000/svg">
<path d="M1.78125 8.0625C1.64583 8.08333 1.53125 8.09896 1.4375 8.10938C1.34375 8.11979 1.26562 8.125 1.20312 8.125C0.848958 8.10417 0.598958 8.00521 0.453125 7.82812C0.307292 7.64062 0.234375 7.33333 0.234375 6.90625C0.234375 6.0625 0.640625 5.53125 1.45312 5.3125C2.17188 5.14583 2.94271 5.02604 3.76562 4.95312C4.58854 4.86979 5.50521 4.82812 6.51562 4.82812C7.86979 4.82812 9.21354 4.95833 10.5469 5.21875C11.8906 5.47917 13.1667 5.83854 14.375 6.29688C15.5938 6.74479 16.724 7.28125 17.7656 7.90625C18.8073 8.52083 19.7083 9.19271 20.4688 9.92188C21.2396 10.6406 21.8385 11.401 22.2656 12.2031C22.7031 12.9948 22.9219 13.7917 22.9219 14.5938C22.9219 15.4062 22.6458 16.1823 22.0938 16.9219C21.5521 17.651 20.8177 18.2969 19.8906 18.8594C18.9635 19.4219 17.8906 19.8698 16.6719 20.2031C15.4531 20.5365 14.1771 20.7031 12.8438 20.7031C11.7812 20.7031 10.6719 20.6042 9.51562 20.4062C8.35938 20.2083 7.08333 19.8906 5.6875 19.4531C5.04167 19.276 4.71875 18.8802 4.71875 18.2656C4.71875 18.1302 4.75 18.0052 4.8125 17.8906C4.875 17.776 4.9375 17.6667 5 17.5625C5.07292 17.4583 5.14062 17.3594 5.20312 17.2656C5.26562 17.1615 5.29688 17.0573 5.29688 16.9531C5.29688 16.3594 5.26562 15.724 5.20312 15.0469C5.15104 14.3698 5.07292 13.6927 4.96875 13.0156C4.875 12.3385 4.76042 11.6927 4.625 11.0781C4.5 10.4531 4.36979 9.90104 4.23438 9.42188C4.09896 8.94271 3.95833 8.5625 3.8125 8.28125C3.67708 7.98958 3.55208 7.84375 3.4375 7.84375C3.26042 7.84375 3.04167 7.86458 2.78125 7.90625C2.53125 7.94792 2.19792 8 1.78125 8.0625ZM7.79688 7.8125C7.49479 7.8125 7.34375 7.91667 7.34375 8.125C7.34375 8.17708 7.35938 8.26562 7.39062 8.39062C7.42188 8.51562 7.46875 8.71354 7.53125 8.98438C7.625 9.42188 7.71354 9.89062 7.79688 10.3906C7.88021 10.8906 7.96354 11.4531 8.04688 12.0781C8.13021 12.6927 8.20833 13.3854 8.28125 14.1562C8.36458 14.9167 8.44792 15.776 8.53125 16.7344C8.54167 16.8906 8.68229 17.0417 8.95312 17.1875C9.22396 17.3229 9.58333 17.4479 10.0312 17.5625C10.4792 17.6667 10.9896 17.7552 11.5625 17.8281C12.1458 17.8906 12.7448 17.9219 13.3594 17.9219C14.1719 17.9219 14.9479 17.8281 15.6875 17.6406C16.4375 17.4427 17.0938 17.1823 17.6562 16.8594C18.2292 16.5365 18.6823 16.1615 19.0156 15.7344C19.3594 15.3073 19.5312 14.8646 19.5312 14.4062C19.5312 13.6458 19.2292 12.9062 18.625 12.1875C18.0312 11.4688 17.2083 10.8177 16.1562 10.2344C15.1042 9.64062 13.8646 9.13542 12.4375 8.71875C11.0104 8.29167 9.46354 7.98958 7.79688 7.8125ZM27.4531 14.4688C27.4531 15.8646 27.6667 16.9427 28.0938 17.7031C28.5208 18.4635 29.1406 18.8438 29.9531 18.8438C30.4635 18.8438 30.9323 18.6927 31.3594 18.3906C31.7969 18.0885 32.1719 17.6667 32.4844 17.125C32.7969 16.5833 33.0365 15.9427 33.2031 15.2031C33.3802 14.4531 33.4688 13.6406 33.4688 12.7656C33.4688 12.2344 33.4479 11.776 33.4062 11.3906C33.3646 10.9948 33.3177 10.6458 33.2656 10.3438C33.224 10.0312 33.1823 9.75521 33.1406 9.51562C33.099 9.27604 33.0781 9.04688 33.0781 8.82812C33.0781 8.49479 33.2188 8.25521 33.5 8.10938C33.7812 7.95312 34.2292 7.875 34.8438 7.875C35.625 7.875 36.2292 8.05208 36.6562 8.40625C37.0938 8.76042 37.3125 9.27604 37.3125 9.95312C37.3125 11.7969 37.1302 13.4531 36.7656 14.9219C36.4115 16.3906 35.8958 17.6406 35.2188 18.6719C34.5521 19.6927 33.7396 20.4792 32.7812 21.0312C31.8229 21.5833 30.75 21.8594 29.5625 21.8594C28.7188 21.8594 27.9375 21.6823 27.2188 21.3281C26.5104 20.9844 25.8958 20.5 25.375 19.875C24.8646 19.2396 24.4635 18.4896 24.1719 17.625C23.8802 16.75 23.7344 15.7917 23.7344 14.75C23.7344 14.3542 23.7448 13.9323 23.7656 13.4844C23.7865 13.0365 23.8177 12.5573 23.8594 12.0469C23.901 11.526 23.9531 10.9635 24.0156 10.3594C24.0885 9.75521 24.1667 9.09896 24.25 8.39062C24.2812 8.08854 24.4219 7.84896 24.6719 7.67188C24.9323 7.48438 25.2604 7.39062 25.6562 7.39062C26.0104 7.39062 26.3438 7.42708 26.6562 7.5C26.9688 7.57292 27.2344 7.67188 27.4531 7.79688C27.6823 7.92188 27.8594 8.06771 27.9844 8.23438C28.1198 8.40104 28.1875 8.57812 28.1875 8.76562C28.1875 8.95312 28.1458 9.25 28.0625 9.65625C27.9896 10.0521 27.9062 10.5104 27.8125 11.0312C27.7292 11.5417 27.6458 12.099 27.5625 12.7031C27.4896 13.2969 27.4531 13.8854 27.4531 14.4688ZM44.7188 7.10938C45.2604 7.10938 45.7865 7.1875 46.2969 7.34375C46.8073 7.5 47.2552 7.71354 47.6406 7.98438C48.0365 8.24479 48.3542 8.54688 48.5938 8.89062C48.8333 9.22396 48.9531 9.56771 48.9531 9.92188C48.9531 10.151 48.9062 10.375 48.8125 10.5938C48.7188 10.8021 48.5938 10.9896 48.4375 11.1562C48.2812 11.3125 48.1042 11.4427 47.9062 11.5469C47.7083 11.6406 47.5 11.6875 47.2812 11.6875C47.0417 11.6875 46.8229 11.599 46.625 11.4219C46.4271 11.2344 46.2135 11.0312 45.9844 10.8125C45.7656 10.5833 45.5156 10.3802 45.2344 10.2031C44.9635 10.0156 44.6354 9.92188 44.25 9.92188C43.875 9.92188 43.5365 10.0104 43.2344 10.1875C42.9323 10.3646 42.6771 10.6146 42.4688 10.9375C42.2708 11.25 42.1146 11.625 42 12.0625C41.8958 12.4896 41.8438 12.9583 41.8438 13.4688C41.8438 14.9271 42.1198 16.0417 42.6719 16.8125C43.224 17.5729 44.0156 17.9531 45.0469 17.9531C45.5365 17.9531 45.9531 17.875 46.2969 17.7188C46.651 17.5625 46.9583 17.3906 47.2188 17.2031C47.4896 17.0156 47.7344 16.8438 47.9531 16.6875C48.1719 16.5312 48.3958 16.4531 48.625 16.4531C48.75 16.4531 48.875 16.4948 49 16.5781C49.125 16.651 49.2344 16.75 49.3281 16.875C49.4323 16.9896 49.5156 17.1198 49.5781 17.2656C49.651 17.4115 49.6875 17.5573 49.6875 17.7031C49.6875 18.0469 49.5156 18.401 49.1719 18.7656C48.8385 19.1302 48.4062 19.4635 47.875 19.7656C47.3438 20.0573 46.75 20.2969 46.0938 20.4844C45.4479 20.6719 44.8177 20.7656 44.2031 20.7656C43.3802 20.7656 42.625 20.6042 41.9375 20.2812C41.25 19.9688 40.6562 19.5312 40.1562 18.9688C39.6562 18.3958 39.2656 17.7135 38.9844 16.9219C38.7135 16.1302 38.5781 15.2552 38.5781 14.2969C38.5781 13.2552 38.7292 12.2969 39.0312 11.4219C39.3438 10.5469 39.7708 9.79167 40.3125 9.15625C40.8646 8.51042 41.5156 8.01042 42.2656 7.65625C43.0156 7.29167 43.8333 7.10938 44.7188 7.10938ZM51.0156 19.6875C51.0156 18.7812 50.9896 17.7969 50.9375 16.7344C50.8854 15.6719 50.8177 14.599 50.7344 13.5156C50.6615 12.4219 50.5781 11.3542 50.4844 10.3125C50.401 9.27083 50.3177 8.31771 50.2344 7.45312C50.1615 6.58854 50.099 5.84375 50.0469 5.21875C49.9948 4.59375 49.9688 4.15625 49.9688 3.90625C49.9688 3.48958 50.125 3.17188 50.4375 2.95312C50.75 2.73438 51.2031 2.625 51.7969 2.625C52.0573 2.625 52.276 2.65104 52.4531 2.70312C52.6406 2.75521 52.7917 2.84375 52.9062 2.96875C53.0208 3.09375 53.1094 3.26042 53.1719 3.46875C53.2448 3.66667 53.2969 3.91667 53.3281 4.21875C53.3698 4.63542 53.4062 5.08333 53.4375 5.5625C53.4688 6.03125 53.5 6.56771 53.5312 7.17188C53.5729 7.77604 53.6146 8.45833 53.6562 9.21875C53.6979 9.97917 53.75 10.8542 53.8125 11.8438C53.8125 11.9896 53.8385 12.0938 53.8906 12.1562C53.9427 12.2188 54 12.25 54.0625 12.25C54.1771 12.25 54.2812 12.1562 54.375 11.9688C55.2604 10.1667 56.1875 8.79167 57.1562 7.84375C58.125 6.88542 59.0677 6.40625 59.9844 6.40625C60.526 6.40625 60.9531 6.56771 61.2656 6.89062C61.5781 7.21354 61.7344 7.64583 61.7344 8.1875C61.7344 8.77083 61.6042 9.3125 61.3438 9.8125C61.0938 10.3021 60.776 10.7656 60.3906 11.2031C60.0156 11.6406 59.6042 12.0521 59.1562 12.4375C58.7188 12.8229 58.3073 13.1979 57.9219 13.5625C57.5469 13.9271 57.2292 14.2865 56.9688 14.6406C56.7188 14.9844 56.5938 15.3333 56.5938 15.6875C56.5938 16.0104 56.7812 16.3438 57.1562 16.6875C57.5417 17.0208 58.0938 17.3542 58.8125 17.6875C59.5312 18.0104 60.4115 18.3281 61.4531 18.6406C62.4948 18.9427 63.6771 19.2344 65 19.5156C65.2083 19.5677 65.3542 19.651 65.4375 19.7656C65.5312 19.8802 65.5781 20.0312 65.5781 20.2188C65.5781 20.4479 65.526 20.6823 65.4219 20.9219C65.3177 21.1719 65.1875 21.3958 65.0312 21.5938C64.875 21.8021 64.6979 21.9688 64.5 22.0938C64.3125 22.2292 64.1302 22.2969 63.9531 22.2969C63.599 22.2969 63.1771 22.25 62.6875 22.1562C62.1979 22.0625 61.6667 21.9323 61.0938 21.7656C60.5312 21.6094 59.9479 21.4219 59.3438 21.2031C58.7396 20.9948 58.151 20.7656 57.5781 20.5156C57.0156 20.276 56.4792 20.026 55.9688 19.7656C55.4688 19.4948 55.0365 19.2292 54.6719 18.9688C54.5573 18.9062 54.4635 18.8542 54.3906 18.8125C54.3281 18.7708 54.2708 18.75 54.2188 18.75C54.1562 18.75 54.1198 18.776 54.1094 18.8281C54.099 18.8698 54.0938 18.9635 54.0938 19.1094C54.0938 19.474 54.0625 19.7708 54 20C53.9479 20.2292 53.8542 20.4062 53.7188 20.5312C53.5833 20.6667 53.3958 20.7604 53.1562 20.8125C52.9167 20.8646 52.6198 20.8906 52.2656 20.8906C51.7969 20.8906 51.4688 20.8021 51.2812 20.625C51.1042 20.4479 51.0156 20.1354 51.0156 19.6875ZM68.4062 21.0625C68.1042 21.1146 67.8333 21.1719 67.5938 21.2344C67.3542 21.3073 67.0573 21.3438 66.7031 21.3438C66.3177 21.3438 66.0208 21.2344 65.8125 21.0156C65.6042 20.7969 65.5 20.5521 65.5 20.2812C65.5 20.0625 65.5365 19.7812 65.6094 19.4375C65.6823 19.0833 65.7188 18.7292 65.7188 18.375C65.6458 17.0312 65.5469 15.7031 65.4219 14.3906C65.3073 13.0677 65.1927 11.8594 65.0781 10.7656C64.9635 9.67188 64.8646 8.73958 64.7812 7.96875C64.6979 7.1875 64.6562 6.65625 64.6562 6.375C64.6562 6.1875 64.7031 6.01562 64.7969 5.85938C64.8906 5.69271 65.0208 5.54688 65.1875 5.42188C65.3542 5.29688 65.5469 5.20312 65.7656 5.14062C65.9948 5.06771 66.2344 5.03125 66.4844 5.03125C66.974 5.03125 67.3333 5.10938 67.5625 5.26562C67.7917 5.41146 67.9323 5.65104 67.9844 5.98438C68.276 8.22396 68.4844 10.2812 68.6094 12.1562C68.7448 14.0208 68.8385 15.7708 68.8906 17.4062C68.8906 17.6458 68.9531 17.8281 69.0781 17.9531C69.2135 18.0781 69.3854 18.1406 69.5938 18.1406C70.0104 18.1406 70.4323 18.1198 70.8594 18.0781C71.2865 18.026 71.7135 17.974 72.1406 17.9219C72.5677 17.8698 72.9896 17.8229 73.4062 17.7812C73.8333 17.7292 74.2448 17.7031 74.6406 17.7031C74.901 17.7031 75.1094 17.7344 75.2656 17.7969C75.4323 17.8594 75.5573 17.9427 75.6406 18.0469C75.7344 18.151 75.7917 18.2708 75.8125 18.4062C75.8438 18.5312 75.8594 18.6562 75.8594 18.7812C75.8594 18.9792 75.8385 19.1771 75.7969 19.375C75.7552 19.5729 75.6823 19.7552 75.5781 19.9219C75.474 20.0781 75.3333 20.2083 75.1562 20.3125C74.9792 20.4271 74.7552 20.4948 74.4844 20.5156C73.2031 20.6406 72.0312 20.7344 70.9688 20.7969C69.9167 20.8594 69.0625 20.9479 68.4062 21.0625ZM78.4219 4.0625C78.1198 4.0625 77.8333 4.02083 77.5625 3.9375C77.3021 3.84375 77.0729 3.71875 76.875 3.5625C76.6875 3.39583 76.5365 3.20312 76.4219 2.98438C76.3073 2.76562 76.25 2.52604 76.25 2.26562C76.25 1.82812 76.4219 1.47396 76.7656 1.20312C77.1198 0.932292 77.5885 0.796875 78.1719 0.796875C78.4427 0.796875 78.7031 0.848958 78.9531 0.953125C79.2031 1.04688 79.4219 1.17708 79.6094 1.34375C79.8073 1.51042 79.9635 1.70833 80.0781 1.9375C80.1927 2.15625 80.25 2.38542 80.25 2.625C80.25 3.07292 80.0833 3.42708 79.75 3.6875C79.4271 3.9375 78.9844 4.0625 78.4219 4.0625ZM76.2812 8.82812C76.2812 8.46354 76.4375 8.16667 76.75 7.9375C77.0729 7.69792 77.4948 7.57812 78.0156 7.57812C78.9531 7.57812 79.4531 7.90104 79.5156 8.54688C79.5573 8.99479 79.599 9.5 79.6406 10.0625C79.6927 10.625 79.7396 11.224 79.7812 11.8594C79.8333 12.4844 79.875 13.1354 79.9062 13.8125C79.9479 14.4792 79.9844 15.1406 80.0156 15.7969C80.0469 16.4427 80.0729 17.0677 80.0938 17.6719C80.1146 18.276 80.125 18.8281 80.125 19.3281C80.125 19.849 79.9375 20.2396 79.5625 20.5C79.1979 20.7604 78.6615 20.8906 77.9531 20.8906C77.6302 20.8906 77.375 20.8125 77.1875 20.6562C77.0104 20.5104 76.9219 20.2917 76.9219 20C76.9219 18.5625 76.8854 17.2188 76.8125 15.9688C76.75 14.7083 76.6771 13.5885 76.5938 12.6094C76.5208 11.6302 76.4479 10.8177 76.375 10.1719C76.3125 9.51562 76.2812 9.06771 76.2812 8.82812ZM86.9062 6.4375C87.6042 6.4375 88.3229 6.53125 89.0625 6.71875C89.8021 6.89583 90.4792 7.13021 91.0938 7.42188C91.7083 7.70312 92.2135 8.02083 92.6094 8.375C93.0052 8.72917 93.2031 9.07292 93.2031 9.40625C93.2031 9.57292 93.1302 9.76042 92.9844 9.96875C92.8385 10.1667 92.6615 10.3594 92.4531 10.5469C92.2448 10.724 92.0156 10.875 91.7656 11C91.526 11.1146 91.3125 11.1719 91.125 11.1719C90.875 11.1719 90.5938 11.0677 90.2812 10.8594C89.9792 10.651 89.6406 10.4219 89.2656 10.1719C88.901 9.91146 88.5 9.67708 88.0625 9.46875C87.625 9.26042 87.151 9.15625 86.6406 9.15625C86.3073 9.15625 86.0312 9.23958 85.8125 9.40625C85.6042 9.5625 85.5 9.78646 85.5 10.0781C85.5 10.3385 85.625 10.6042 85.875 10.875C86.125 11.1354 86.4531 11.4062 86.8594 11.6875C87.276 11.9688 87.7448 12.2656 88.2656 12.5781C88.7865 12.8906 89.3177 13.224 89.8594 13.5781C90.4115 13.9323 90.9479 14.3177 91.4688 14.7344C91.9896 15.151 92.4531 15.6042 92.8594 16.0938C93.276 16.5833 93.6094 17.1198 93.8594 17.7031C94.1094 18.276 94.2344 18.901 94.2344 19.5781C94.2344 20.1615 94.1302 20.6927 93.9219 21.1719C93.7135 21.651 93.4167 22.0625 93.0312 22.4062C92.6458 22.75 92.1875 23.0156 91.6562 23.2031C91.125 23.3906 90.5417 23.4844 89.9062 23.4844C89.1042 23.4844 88.3646 23.3594 87.6875 23.1094C87.0104 22.8698 86.4271 22.5365 85.9375 22.1094C85.4479 21.6823 85.0625 21.1719 84.7812 20.5781C84.5104 19.9844 84.375 19.3333 84.375 18.625C84.375 17.7083 84.5365 17.0417 84.8594 16.625C85.1927 16.2083 85.7135 16 86.4219 16C86.8594 16 87.2083 16.0833 87.4688 16.25C87.7292 16.4167 87.8594 16.6198 87.8594 16.8594C87.8594 16.9844 87.8385 17.1146 87.7969 17.25C87.7552 17.375 87.7083 17.5104 87.6562 17.6562C87.6146 17.7917 87.5729 17.9375 87.5312 18.0938C87.5 18.25 87.4844 18.4062 87.4844 18.5625C87.4844 18.8333 87.5469 19.0938 87.6719 19.3438C87.7969 19.5938 87.9635 19.8125 88.1719 20C88.3906 20.1979 88.6406 20.3542 88.9219 20.4688C89.2031 20.5833 89.5 20.6406 89.8125 20.6406C90.6458 20.6406 91.0625 20.2969 91.0625 19.6094C91.0625 19.0677 90.849 18.5573 90.4219 18.0781C89.9948 17.5885 89.4583 17.1146 88.8125 16.6562C88.1667 16.1875 87.4688 15.7188 86.7188 15.25C85.9792 14.7812 85.2865 14.2917 84.6406 13.7812C83.9948 13.2708 83.4583 12.7292 83.0312 12.1562C82.6042 11.5729 82.3906 10.9427 82.3906 10.2656C82.3906 9.70312 82.5052 9.1875 82.7344 8.71875C82.974 8.25 83.2969 7.84896 83.7031 7.51562C84.1094 7.17188 84.5833 6.90625 85.125 6.71875C85.6771 6.53125 86.2708 6.4375 86.9062 6.4375ZM96.25 1.95312C96.25 1.40104 96.4062 1.01562 96.7188 0.796875C97.0312 0.567708 97.5469 0.453125 98.2656 0.453125C98.526 0.453125 98.7448 0.479167 98.9219 0.53125C99.1094 0.572917 99.2656 0.65625 99.3906 0.78125C99.526 0.90625 99.6302 1.07292 99.7031 1.28125C99.7865 1.47917 99.8542 1.73438 99.9062 2.04688C100.031 3.01562 100.167 4.01562 100.312 5.04688C100.469 6.07812 100.63 7.11458 100.797 8.15625C100.859 8.625 101.104 8.85938 101.531 8.85938C101.646 8.85938 101.833 8.84896 102.094 8.82812C102.365 8.79688 102.682 8.76562 103.047 8.73438C103.411 8.69271 103.802 8.65104 104.219 8.60938C104.646 8.56771 105.068 8.53125 105.484 8.5C105.911 8.45833 106.312 8.42708 106.688 8.40625C107.073 8.375 107.411 8.35938 107.703 8.35938C107.932 8.35938 108.115 8.40625 108.25 8.5C108.385 8.58333 108.49 8.69792 108.562 8.84375C108.646 8.97917 108.698 9.13542 108.719 9.3125C108.75 9.47917 108.766 9.65104 108.766 9.82812C108.766 9.98438 108.734 10.1458 108.672 10.3125C108.62 10.4792 108.542 10.6302 108.438 10.7656C108.344 10.8906 108.224 10.9948 108.078 11.0781C107.932 11.1615 107.766 11.2031 107.578 11.2031C106.672 11.2031 105.755 11.2344 104.828 11.2969C103.911 11.349 102.995 11.4219 102.078 11.5156C101.609 11.5781 101.375 11.8125 101.375 12.2188C101.375 12.25 101.38 12.2917 101.391 12.3438C101.401 12.3854 101.406 12.4219 101.406 12.4531C101.531 13.3594 101.646 14.2083 101.75 15C101.865 15.7917 101.958 16.5 102.031 17.125C102.115 17.7396 102.177 18.2552 102.219 18.6719C102.271 19.0781 102.297 19.349 102.297 19.4844C102.297 19.8594 102.26 20.1719 102.188 20.4219C102.115 20.6823 101.995 20.8906 101.828 21.0469C101.661 21.2135 101.438 21.3281 101.156 21.3906C100.885 21.4635 100.542 21.5 100.125 21.5C99.7292 21.5 99.4375 21.4062 99.25 21.2188C99.0625 21.0312 98.9583 20.7448 98.9375 20.3594C98.875 19.1302 98.776 17.8958 98.6406 16.6562C98.5052 15.4062 98.349 14.1615 98.1719 12.9219C98.0781 12.474 97.8438 12.25 97.4688 12.25C97.4375 12.25 97.401 12.2552 97.3594 12.2656C97.3177 12.276 97.2812 12.2812 97.25 12.2812C96.6042 12.4271 95.9948 12.5729 95.4219 12.7188C94.849 12.8646 94.3125 13.0208 93.8125 13.1875C93.5312 13.2812 93.2812 13.349 93.0625 13.3906C92.8438 13.4219 92.6458 13.4375 92.4688 13.4375C92.2292 13.4375 92.0521 13.3333 91.9375 13.125C91.8229 12.9062 91.7656 12.6354 91.7656 12.3125C91.7656 12.1979 91.776 12.0677 91.7969 11.9219C91.8177 11.7656 91.8594 11.6146 91.9219 11.4688C91.974 11.3125 92.0573 11.1719 92.1719 11.0469C92.276 10.9115 92.4219 10.8021 92.6094 10.7188C93.0469 10.5417 93.6302 10.3594 94.3594 10.1719C95.0885 9.97396 95.9115 9.79167 96.8281 9.625C97.0365 9.57292 97.1979 9.48958 97.3125 9.375C97.4375 9.25 97.5 9.06771 97.5 8.82812C97.5 8.77604 97.5 8.72396 97.5 8.67188C97.5 8.60938 97.4896 8.54688 97.4688 8.48438C97.3021 7.52604 97.1406 6.65625 96.9844 5.875C96.8385 5.08333 96.7083 4.40625 96.5938 3.84375C96.4896 3.28125 96.4062 2.83854 96.3438 2.51562C96.2812 2.19271 96.25 2.00521 96.25 1.95312ZM121.156 16.5781C121.458 16.3177 121.755 16.1875 122.047 16.1875C122.214 16.1875 122.365 16.2292 122.5 16.3125C122.635 16.3958 122.786 16.526 122.953 16.7031C123.109 16.9427 123.219 17.1406 123.281 17.2969C123.354 17.4427 123.391 17.5885 123.391 17.7344C123.391 18.0469 123.234 18.3438 122.922 18.625C122.422 19.0417 121.88 19.4167 121.297 19.75C120.714 20.0729 120.104 20.349 119.469 20.5781C118.833 20.8073 118.177 20.9792 117.5 21.0938C116.823 21.2188 116.151 21.2812 115.484 21.2812C114.641 21.2812 113.849 21.1719 113.109 20.9531C112.37 20.7448 111.708 20.4427 111.125 20.0469C110.552 19.651 110.068 19.1771 109.672 18.625C109.276 18.0625 108.995 17.4323 108.828 16.7344C108.734 16.4427 108.646 16.2552 108.562 16.1719C108.49 16.0781 108.365 16.0312 108.188 16.0312C107.802 16.0312 107.505 15.9375 107.297 15.75C107.089 15.5625 106.984 15.2917 106.984 14.9375C106.984 14.7917 106.995 14.6979 107.016 14.6562L107.047 14.3438C107.099 13.9688 107.198 13.6979 107.344 13.5312C107.5 13.3646 107.74 13.2812 108.062 13.2812H108.297C108.734 13.2812 109.042 13.0781 109.219 12.6719C109.542 11.9531 109.953 11.2969 110.453 10.7031C110.953 10.1094 111.516 9.60417 112.141 9.1875C112.766 8.76042 113.432 8.43229 114.141 8.20312C114.859 7.96354 115.589 7.84375 116.328 7.84375C117.099 7.84375 117.818 7.95833 118.484 8.1875C119.161 8.40625 119.75 8.71354 120.25 9.10938C120.75 9.50521 121.141 9.96875 121.422 10.5C121.714 11.0312 121.859 11.6042 121.859 12.2188C121.859 12.6458 121.776 13.0365 121.609 13.3906C121.443 13.7448 121.203 14.0573 120.891 14.3281C120.578 14.5885 120.198 14.8021 119.75 14.9688C119.312 15.1354 118.812 15.2448 118.25 15.2969L112.828 15.8438C112.62 15.8438 112.448 15.8958 112.312 16C112.188 16.1042 112.125 16.2448 112.125 16.4219C112.125 16.6927 112.224 16.9531 112.422 17.2031C112.63 17.4531 112.901 17.6771 113.234 17.875C113.578 18.0625 113.969 18.2135 114.406 18.3281C114.854 18.4427 115.312 18.5 115.781 18.5C116.229 18.5 116.688 18.4583 117.156 18.375C117.635 18.2812 118.104 18.151 118.562 17.9844C119.031 17.8177 119.484 17.6198 119.922 17.3906C120.359 17.151 120.771 16.8802 121.156 16.5781ZM117.672 12.5469C117.828 12.5156 117.964 12.4427 118.078 12.3281C118.193 12.2031 118.25 12.0521 118.25 11.875C118.25 11.7188 118.193 11.5729 118.078 11.4375C117.964 11.3021 117.807 11.1823 117.609 11.0781C117.411 10.9635 117.182 10.875 116.922 10.8125C116.661 10.75 116.385 10.7188 116.094 10.7188C115.667 10.7188 115.229 10.7812 114.781 10.9062C114.333 11.0312 113.927 11.1979 113.562 11.4062C113.198 11.6042 112.901 11.8281 112.672 12.0781C112.443 12.3177 112.328 12.5573 112.328 12.7969C112.328 13.0365 112.474 13.1562 112.766 13.1562C112.943 13.1562 113.229 13.1354 113.625 13.0938C114.021 13.0521 114.458 13.0052 114.938 12.9531C115.417 12.8906 115.901 12.8229 116.391 12.75C116.88 12.6771 117.307 12.6094 117.672 12.5469ZM124.656 7.39062C124.656 7.23438 124.724 7.08333 124.859 6.9375C124.995 6.78125 125.172 6.64583 125.391 6.53125C125.609 6.40625 125.854 6.30729 126.125 6.23438C126.406 6.15104 126.688 6.10938 126.969 6.10938C127.125 6.10938 127.255 6.15104 127.359 6.23438C127.474 6.31771 127.573 6.47917 127.656 6.71875C127.74 6.94792 127.812 7.27604 127.875 7.70312C127.948 8.11979 128.016 8.66667 128.078 9.34375C128.12 9.55208 128.156 9.71354 128.188 9.82812C128.229 9.93229 128.281 9.98438 128.344 9.98438C128.438 9.98438 128.531 9.82292 128.625 9.5C129.385 7.30208 130.484 6.20312 131.922 6.20312C132.589 6.20312 133.193 6.41146 133.734 6.82812C134.286 7.24479 134.797 7.92708 135.266 8.875C135.745 9.8125 136.198 11.0521 136.625 12.5938C137.052 14.125 137.479 16.0156 137.906 18.2656C137.927 18.3802 137.943 18.4844 137.953 18.5781C137.964 18.6719 137.969 18.7604 137.969 18.8438C137.969 19.0833 137.911 19.2917 137.797 19.4688C137.693 19.6354 137.552 19.776 137.375 19.8906C137.198 19.9948 137 20.0729 136.781 20.125C136.562 20.1875 136.344 20.2188 136.125 20.2188C135.688 20.2188 135.37 20.1719 135.172 20.0781C134.984 19.9844 134.865 19.8073 134.812 19.5469C134.51 17.9635 134.214 16.5573 133.922 15.3281C133.641 14.099 133.359 13.0677 133.078 12.2344C132.807 11.3906 132.536 10.75 132.266 10.3125C131.995 9.875 131.724 9.65625 131.453 9.65625C131.182 9.65625 130.927 9.82812 130.688 10.1719C130.458 10.5052 130.234 11.0312 130.016 11.75C129.797 12.4688 129.583 13.3802 129.375 14.4844C129.177 15.5885 128.984 16.9062 128.797 18.4375C128.745 18.8542 128.536 19.1875 128.172 19.4375C127.807 19.6875 127.344 19.8125 126.781 19.8125C126.406 19.8125 126.12 19.7344 125.922 19.5781C125.724 19.4219 125.615 19.2083 125.594 18.9375C125.5 16.7708 125.396 14.9896 125.281 13.5938C125.177 12.1875 125.078 11.0625 124.984 10.2188C124.891 9.36458 124.812 8.72917 124.75 8.3125C124.688 7.89583 124.656 7.58854 124.656 7.39062Z" fill="white"/>
</svg>
