<svg width="79" height="88" viewBox="0 0 79 88" fill="none" xmlns="http://www.w3.org/2000/svg">
<ellipse cx="25.4498" cy="33.0308" rx="8.5" ry="11.5" transform="rotate(12.1442 25.4498 33.0308)" fill="white"/>
<path d="M10.936 77.7299L16.7028 74.7007L23.3802 75.9124L24.8978 80.1533C21.7268 80.0165 19.9355 80.6571 16.7028 83.7883C15.9134 80.6021 14.6714 79.2643 10.936 77.7299Z" fill="#F8D04C" stroke="#454545" stroke-width="3" stroke-linecap="round"/>
<path d="M53.4286 78.9416L47.6618 75.6095L40.6809 76.2153L39.4668 81.365C42.6378 81.2282 44.4291 81.8688 47.6618 85C48.4512 81.8138 49.6932 80.476 53.4286 78.9416Z" fill="#F8D04C" stroke="#454545" stroke-width="3" stroke-linecap="round"/>
<path d="M65.8729 28.354C62.9213 26.5006 60.8439 26.1784 56.7674 26.2336L47.3582 16.8431C39.4668 2.30292 18.3103 5.08991 14.8817 25.3248L5.47264 43.8029C1.73605 48.8767 0.993959 57.9484 3.34799 63.4927C5.70202 69.037 16.2667 74.9832 21.5591 75.6095C26.8515 76.2358 44.9404 77.1494 50.697 74.3978C56.4536 71.6462 72.1126 66.3556 76.1926 50.4672C77.1562 42.8545 77.3765 38.4431 76.1926 29.8686C72.9854 31.5738 70.8654 31.6316 65.8729 28.354Z" fill="white" stroke="#454545" stroke-width="3" stroke-linecap="round"/>
<path d="M14.8817 25.3248C18.3103 5.08991 39.4667 2.30292 47.3582 16.8431" stroke="#454545" stroke-width="3" stroke-linecap="round"/>
<path d="M57.6779 24.719C57.6779 29.236 54.4165 32.8978 50.3934 32.8978C46.3703 32.8978 43.109 29.236 43.109 24.719C43.109 20.2019 46.3703 16.5402 50.3934 16.5402C54.4165 16.5402 57.6779 20.2019 57.6779 24.719Z" fill="white"/>
<path d="M15.3484 13.1156C14.9925 13.8637 15.3103 14.7587 16.0584 15.1146C16.8064 15.4706 17.7014 15.1527 18.0574 14.4046L15.3484 13.1156ZM56.1779 24.719C56.1779 28.5756 53.4295 31.3978 50.3934 31.3978V34.3978C55.4036 34.3978 59.1779 29.8964 59.1779 24.719H56.1779ZM50.3934 31.3978C47.3574 31.3978 44.609 28.5756 44.609 24.719H41.609C41.609 29.8964 45.3833 34.3978 50.3934 34.3978V31.3978ZM44.609 24.719C44.609 20.8623 47.3574 18.0402 50.3934 18.0402V15.0402C45.3833 15.0402 41.609 19.5415 41.609 24.719H44.609ZM50.3934 18.0402C53.4295 18.0402 56.1779 20.8623 56.1779 24.719H59.1779C59.1779 19.5415 55.4036 15.0402 50.3934 15.0402V18.0402ZM18.0574 14.4046C21.555 7.05403 27.6283 3.5 34.307 3.5V0.5C26.4167 0.5 19.3197 4.76968 15.3484 13.1156L18.0574 14.4046ZM34.307 3.5C40.7685 3.5 47.3689 8.75956 50.1858 17.1316L53.0292 16.1749C49.9284 6.95928 42.4144 0.5 34.307 0.5V3.5ZM20.0541 12.3475C17.6043 11.8196 15.456 12.2697 13.7382 13.3769C12.0502 14.465 10.8707 16.1248 10.1803 17.893C9.49049 19.6596 9.2532 21.6218 9.53314 23.4148C9.81223 25.2023 10.6329 26.9511 12.1901 28.0609L13.9312 25.6179C13.2117 25.1051 12.6906 24.1907 12.4972 22.952C12.3047 21.7188 12.4642 20.2919 12.9748 18.9841C13.4849 17.6778 14.3095 16.5779 15.3635 15.8985C16.3878 15.2383 17.7195 14.9133 19.4221 15.2802L20.0541 12.3475Z" fill="#454545"/>
<ellipse cx="34.914" cy="25.9307" rx="1.51759" ry="2.12044" fill="#454545"/>
<path d="M5.05808 35.6241C7.18272 30.7774 10.7927 29.9008 14.4672 26.2336C14.4672 26.2336 17.8566 28.9599 23.0164 28.9599C28.1762 28.9599 27.2631 32.9829 26.9622 33.8066C26.6612 34.6303 22.4143 41.0766 13.6073 42.8942C4.80038 44.7117 2.93345 40.4708 5.05808 35.6241Z" fill="#F8D04C" stroke="#454545" stroke-width="3" stroke-linecap="round"/>
<path d="M48.5724 22.4168C48.5724 22.4168 49.1794 21.6898 50.697 21.9927C52.2146 22.2956 53.1252 24.1131 52.8216 25.6277C52.5181 27.1423 49.7864 27.7482 49.7864 27.7482C49.3123 25.6661 49.0465 24.4988 48.5724 22.4168ZM48.5724 22.4168L47.9653 22.9015" stroke="#F8D04C" stroke-width="2" stroke-linecap="round"/>
</svg>
